<svg xmlns="http://www.w3.org/2000/svg" xmlns:xlink="http://www.w3.org/1999/xlink" version="1.1" viewBox="0 0 100 100" enable-background="new 0 0 100 100"><path d="M84.292,21.729H15.708c-4.963,0-9,4.037-9,9v38.543c0,4.963,4.037,9,9,9h68.584c4.963,0,9-4.037,9-9V30.729  C93.292,25.766,89.255,21.729,84.292,21.729z M65.918,48.064l23.096-18.911c0.166,0.498,0.278,1.021,0.278,1.575v38.543  c0,0.484-0.091,0.942-0.22,1.386L65.918,48.064z M84.292,25.729c0.729,0,1.418,0.165,2.044,0.447L50,55.928L13.664,26.176  c0.626-0.282,1.314-0.447,2.044-0.447H84.292z M10.928,70.657c-0.129-0.443-0.22-0.901-0.22-1.386V30.729  c0-0.554,0.112-1.077,0.278-1.575l23.096,18.911L10.928,70.657z M15.708,74.271c-0.796,0-1.538-0.204-2.207-0.536l23.696-23.121  L50,61.098l12.803-10.483l23.696,23.121c-0.669,0.332-1.411,0.536-2.207,0.536H15.708z"/></svg>
