<?xml version="1.0" encoding="utf-8"?>
<!-- Generator: Adobe Illustrator 16.0.4, SVG Export Plug-In . SVG Version: 6.00 Build 0)  -->
<!DOCTYPE svg PUBLIC "-//W3C//DTD SVG 1.1//EN" "http://www.w3.org/Graphics/SVG/1.1/DTD/svg11.dtd">
<svg version="1.1" xmlns="http://www.w3.org/2000/svg" xmlns:xlink="http://www.w3.org/1999/xlink" x="0px" y="0px"
	 width="286.904px" height="260.714px" viewBox="0 0 286.904 260.714" enable-background="new 0 0 286.904 260.714"
	 xml:space="preserve">
<g id="mobile">
	<g>
		<defs>
			<polygon id="SVGID_5_" points="-427.6,259.21 -577.6,172.607 -427.6,86.004 			"/>
		</defs>
		<clipPath id="SVGID_2_">
			<use xlink:href="#SVGID_5_"  overflow="visible"/>
		</clipPath>
		<rect x="-764.6" y="-32.213" clip-path="url(#SVGID_2_)" fill="#FFFFFF" width="834" height="484"/>
		<g clip-path="url(#SVGID_2_)">
			
				<text transform="matrix(1 0 0 1 -382.7217 189.605)" fill="#CD0F22" stroke="#CD0F22" stroke-width="3.27" stroke-miterlimit="10" font-family="'AshbyBlack'" font-size="107.5823">SAVAGE</text>
		</g>
	</g>
	<g>
		<defs>
			<rect id="SVGID_7_" x="-381.6" y="43.787" width="320" height="138"/>
		</defs>
		<clipPath id="SVGID_4_">
			<use xlink:href="#SVGID_7_"  overflow="visible"/>
		</clipPath>
		<g clip-path="url(#SVGID_4_)">
			
				<image overflow="visible" width="300" height="300" xlink:href="../../portfolio-home-page/build/img/projects/hoedown-300.jpg"  transform="matrix(1.7839 0 0 1.7839 -383.7686 40.1602)">
			</image>
		</g>
		<polygon clip-path="url(#SVGID_4_)" fill="#FBFBFF" points="-141.994,182.787 -61.955,44.154 18.084,182.787 		"/>
	</g>
</g>
<g id="mobile_project_alt_1" display="none">
</g>
<g id="mobile_project_alt_2">
</g>
<g id="main">
	<g opacity="0.6">
		<defs>
			<rect id="SVGID_21_" x="-1795.6" y="-177.213" opacity="0.6" width="1025" height="209"/>
		</defs>
		<clipPath id="SVGID_6_">
			<use xlink:href="#SVGID_21_"  overflow="visible"/>
		</clipPath>
		<polygon clip-path="url(#SVGID_6_)" fill="#FBFBFF" stroke="#CD0F22" stroke-linejoin="bevel" stroke-miterlimit="10" points="
			6.9,8.962 -30.291,-12.509 6.9,-33.983 		"/>
		<polygon clip-path="url(#SVGID_6_)" fill="#FBFBFF" stroke="#CD0F22" stroke-linejoin="bevel" stroke-miterlimit="10" points="
			-32.1,-12.504 5.094,8.97 -32.1,30.441 		"/>
		<polygon clip-path="url(#SVGID_6_)" fill="#F53117" stroke="#CD0F22" stroke-linejoin="bevel" stroke-miterlimit="10" points="
			6.9,51.92 -30.291,30.45 6.9,8.976 		"/>
		<polygon clip-path="url(#SVGID_6_)" fill="#D34017" stroke="#CD0F22" stroke-linejoin="bevel" stroke-miterlimit="10" points="
			-32.1,30.441 5.094,51.915 -32.1,73.389 		"/>
		<polygon clip-path="url(#SVGID_6_)" fill="#FBFBFF" stroke="#CD0F22" stroke-linejoin="bevel" stroke-miterlimit="10" points="
			6.9,94.867 -30.291,73.394 6.9,51.92 		"/>
		<polygon clip-path="url(#SVGID_6_)" fill="#F53117" stroke="#CD0F22" stroke-linejoin="bevel" stroke-miterlimit="10" points="
			-32.1,73.402 5.094,94.873 -32.1,116.347 		"/>
		<polygon clip-path="url(#SVGID_6_)" fill="#CD0F22" stroke="#CD0F22" stroke-linejoin="bevel" stroke-miterlimit="10" points="
			6.9,137.826 -30.291,116.353 6.9,94.881 		"/>
	</g>
	<g>
		<polygon fill="#CD0F22" stroke="#CD0F22" stroke-width="3" stroke-linejoin="bevel" stroke-miterlimit="10" points="
			180.133,130.287 162.771,100.215 145.408,130.287 		"/>
		<polygon fill="#CD0F22" stroke="#CD0F22" stroke-width="3" stroke-linejoin="bevel" stroke-miterlimit="10" points="
			196.917,99.287 162.14,39.051 144.841,69.012 126.846,37.846 91.373,99.287 126.268,99.287 109.523,70.287 179.762,70.287 
			163.018,99.287 		"/>
		<polygon fill="#CD0F22" stroke="#CD0F22" stroke-width="3" stroke-linejoin="bevel" stroke-miterlimit="10" points="
			179.837,252.287 249.845,252.287 232.523,222.287 267.932,222.287 232.646,161.172 215.26,191.287 249.762,191.287 
			214.643,252.113 179.523,191.287 214.422,191.287 196.523,160.287 232.136,160.287 198.037,101.478 181.549,130.287 
			213.904,130.287 143.714,251.609 127.043,222.61 109.837,252.287 177.845,252.287 160.523,222.287 197.158,222.287 		"/>
		<polygon fill="#CD0F22" stroke="#CD0F22" stroke-width="3" stroke-linejoin="bevel" stroke-miterlimit="10" points="
			91.133,160.287 73.644,129.995 56.155,160.287 		"/>
		<polygon fill="#CD0F22" stroke="#CD0F22" stroke-width="3" stroke-linejoin="bevel" stroke-miterlimit="10" points="
			143.877,130.287 126.713,100.559 109.549,130.287 		"/>
		<polygon fill="#CD0F22" stroke="#CD0F22" stroke-width="3" stroke-linejoin="bevel" stroke-miterlimit="10" points="
			108.133,130.287 90.948,100.522 73.764,130.287 		"/>
		<polygon fill="#CD0F22" stroke="#CD0F22" stroke-width="3" stroke-linejoin="bevel" stroke-miterlimit="10" points="
			161.121,37.287 144.145,7.884 127.169,37.287 		"/>
		<polygon fill="#CD0F22" stroke="#CD0F22" stroke-width="3" stroke-linejoin="bevel" stroke-miterlimit="10" points="
			19.941,223.01 3.039,252.287 36.845,252.287 		"/>
		<polygon fill="#CD0F22" stroke="#CD0F22" stroke-width="3" stroke-linejoin="bevel" stroke-miterlimit="10" points="
			268.545,223.348 251.837,252.287 285.253,252.287 		"/>
		<polygon fill="#CD0F22" stroke="#CD0F22" stroke-width="3" stroke-linejoin="bevel" stroke-miterlimit="10" points="
			55.422,222.287 37.891,191.922 20.359,222.287 		"/>
		<polygon fill="#CD0F22" stroke="#CD0F22" stroke-width="3" stroke-linejoin="bevel" stroke-miterlimit="10" points="
			107.845,252.287 90.523,222.287 126.929,222.287 91.146,160.309 73.26,191.287 107.762,191.287 72.643,252.113 55.79,222.924 
			38.837,252.287 		"/>
		<polygon fill="#CD0F22" stroke="#CD0F22" stroke-width="3" stroke-linejoin="bevel" stroke-miterlimit="10" points="55.34,161.7 
			38.258,191.287 72.422,191.287 		"/>
	</g>
</g>
</svg>
